<svg
      viewBox="0 0 34 43"
      fill="none"
      xmlns="http://www.w3.org/2000/svg"
    >
      <path
        fill-rule="evenodd"
        clip-rule="evenodd"
        d="M17.3568 15.0199L17.7022 13.1082C9.01703 12.321 5.44146 15.9693 3.12733 19.0726C0.814817 22.1737 -0.411031 26.1315 0.124663 29.9497C0.948359 35.8207 5.44453 40.63 11.1171 42.3324C19.322 44.7948 28.8764 40.244 31.2733 31.9967L29.3756 31.463C29.1789 32.1397 28.8634 32.8435 28.4948 33.5348C27.9623 32.8187 27.6564 31.9584 27.3411 31.1361L27.3398 31.1326C26.9999 30.2461 26.6721 29.32 26.0656 28.571C24.3508 26.4535 21.5484 27.914 19.9507 29.3596L19.9482 29.3619C19.232 30.0099 18.6639 30.524 17.7651 30.8044C16.2487 31.2776 14.7782 30.1445 13.2408 30.3739C10.4816 30.7858 9.87677 34.4013 9.92589 36.6139C9.95046 37.7208 10.0997 38.9054 10.2352 39.9481C6.55186 38.3812 3.64594 35.2913 2.49723 31.5571C3.42435 31.8605 4.5136 32.0067 5.39586 31.4966C7.09333 30.5152 7.30036 28.5113 8.59338 27.2235C10.0066 25.8162 12.7029 27.5915 14.2212 25.565C15.1094 24.3795 15.1313 23.2105 15.1463 22.4088C15.1532 22.0394 15.1375 21.6401 15.2875 21.2951C15.3625 21.1226 15.5102 20.9102 15.908 20.6711C16.7659 20.1553 17.1673 19.3732 17.1763 18.5197C17.1845 17.7418 16.8696 16.977 16.4915 16.3376C16.2 15.8447 15.8317 15.3616 15.4352 14.9239C16.1031 14.8946 16.7416 14.9123 17.3568 15.0199ZM12.3152 40.647C17.9764 42.0749 24.131 39.998 27.4321 35.2911C26.973 34.8434 26.6259 34.3179 26.3485 33.7977C25.8048 32.7783 25.1874 29.3127 23.787 29.4256C21.6503 29.5977 20.3867 32.0234 18.3619 32.6552C16.5967 33.206 15.172 32.0495 13.5369 32.2936C11.9614 32.5288 11.8751 35.4833 11.8992 36.5715C11.9304 37.9785 12.1578 39.3277 12.3152 40.647ZM2.02634 29.2333C2.57583 29.5352 3.76664 30.1864 4.39571 29.8227C5.77611 29.0246 6.08363 26.96 7.18916 25.859C8.06728 24.9846 9.2936 24.9449 10.4612 24.9803L10.4639 24.9804C11.2162 25.0032 12.1325 25.0803 12.6324 24.413C13.1353 23.7418 13.1507 23.1591 13.1721 22.3485C13.1885 21.7302 13.2218 21.1086 13.4728 20.5315C13.732 19.9352 14.1848 19.4315 14.8787 19.0143C15.1418 18.8562 15.2005 18.7006 15.2026 18.4996C15.2055 18.2229 15.0824 17.8162 14.7854 17.3139C14.2675 16.4382 13.422 15.6032 12.8079 15.1745C9.56993 15.6366 6.7013 17.5625 4.71884 20.221C2.76043 22.8472 1.72217 26.1164 2.02634 29.2333Z"
        fill="white"
      />
      <path
        fill-rule="evenodd"
        clip-rule="evenodd"
        d="M27.0532 0H28.0401C29.2653 0 30.4532 0.265115 31.4406 0.902589C32.4443 1.55064 33.1699 2.53895 33.5188 3.84435C34.7782 8.55698 33.3699 12.7763 31.5498 16.7806V29.7874L27.0532 28.4422V0ZM29.027 2.02519V27.0032L29.576 27.1675V16.3639L29.6633 16.1736C31.4903 12.1881 32.7068 8.44247 31.6099 4.33803C31.3766 3.46534 30.927 2.89347 30.3576 2.52586C29.9894 2.28815 29.5432 2.11846 29.027 2.02519ZM20.2858 9.65066L20.2861 0.40534L22.2599 0.405402L22.2596 9.68467C22.9456 9.57597 23.346 9.33504 23.5954 9.07469C23.9678 8.68585 24.1869 8.06605 24.245 7.14194C24.3028 6.22302 24.194 5.15955 24.056 4.00963C24.0417 3.89082 24.0271 3.7709 24.0124 3.65013L24.0112 3.64054L24.011 3.63832C23.8885 2.63334 23.7591 1.57148 23.7591 0.618508H25.7329C25.7329 1.4472 25.8469 2.38575 25.9715 3.41273C25.9863 3.53457 26.0012 3.65766 26.0162 3.78195C26.1522 4.91498 26.2854 6.14407 26.2151 7.26186C26.1451 8.37445 25.8659 9.53551 25.032 10.4062C24.3576 11.1103 23.4282 11.5152 22.2593 11.6428L22.2545 26.6724L20.2808 26.6718L20.2855 11.6165C19.1154 11.4613 18.1897 11.0474 17.5183 10.3514C16.6862 9.48877 16.4033 8.3535 16.332 7.25664C16.2608 6.16002 16.3936 4.95236 16.5287 3.8283C16.5415 3.72165 16.5543 3.61571 16.5671 3.5105C16.6932 2.47002 16.8107 1.50071 16.8107 0.618519L18.7845 0.618496C18.7845 1.62376 18.6522 2.71159 18.5286 3.72814L18.5283 3.72997C18.515 3.83963 18.5018 3.94845 18.4888 4.05624C18.3512 5.20121 18.2437 6.23879 18.3018 7.13276C18.3599 8.02649 18.5761 8.62716 18.9501 9.01493C19.2033 9.27736 19.6066 9.52185 20.2858 9.65066Z"
        fill="white"
      />
    </svg>